<svg xmlns="http://www.w3.org/2000/svg" viewBox="0 0 120 140" role="img"><g fill="none" stroke-linecap="round" stroke-linejoin="round">
  <circle cx="72" cy="40" r="20" stroke="#0F7A46" stroke-width="5"/>
  <path d="M88 53 Q98 65 92 79" stroke="#0F7A46" stroke-width="3.5"/>
  <path d="M62 40 L69 47 L82 34" stroke="#0F7A46" stroke-width="5"/>
  <path d="M60 92 C52 82 34 84 34 92 C34 98 44 99 60 93 C76 99 86 98 86 92 C86 84 68 82 60 92 Z" fill="#1B1F3B"/>
  <path d="M40 112 L56 118 L40 124 Q36 118 40 112 Z M80 112 L64 118 L80 124 Q84 118 80 112 Z" fill="#C89B3C"/>
  <rect x="55" y="114" width="10" height="8" rx="2" fill="#C89B3C"/>
</g></svg>
