<svg xmlns="http://www.w3.org/2000/svg" viewBox="-10 -10 150 170" role="img"><defs>
  <g id="hat">
    <rect x="33" y="16" width="54" height="42" rx="6" fill="#1B1F3B"/>
    <rect x="33" y="44" width="54" height="7" fill="#E2B04A"/>
    <rect x="18" y="54" width="84" height="9" rx="4.5" fill="#1B1F3B"/>
  </g>
  <g id="head"><circle cx="60" cy="92" r="40" fill="#F6E7D3"/></g>
  <g id="eye-l"><circle cx="47" cy="88" r="4" fill="#1B1F3B"/></g>
  <g id="eye-r"><circle cx="75" cy="88" r="4" fill="#1B1F3B"/></g>
  <g id="mustache">
    <path d="M60 106 C54 99 42 99 40 105 C39 109 44 111 48 110 C53 109 57 107 60 107 C63 107 67 109 72 110 C76 111 81 109 80 105 C78 99 66 99 60 106 Z" fill="#1B1F3B"/>
  </g>
  <g id="bowtie">
    <path d="M42 130 L57 135 L42 141 Q39 135 42 130 Z M78 130 L63 135 L78 141 Q81 135 78 130 Z" fill="#E2B04A"/>
    <rect x="56" y="131.5" width="8" height="8" rx="2" fill="#E2B04A"/>
  </g>
  <g id="ring"><circle cx="75" cy="88" r="14" fill="none" stroke="#E2B04A" stroke-width="4"/></g>
  <g id="chain"><path d="M86 98 Q94 108 88 122" fill="none" stroke="#E2B04A" stroke-width="2.5" stroke-linecap="round"/></g>
</defs>
    <use href="#head"/><path d="M38 78 Q47 75 56 78" fill="none" stroke="#1B1F3B" stroke-width="3" stroke-linecap="round"/><path d="M66 70 Q75 65 84 70" fill="none" stroke="#1B1F3B" stroke-width="3" stroke-linecap="round"/>
    <path d="M42 88 L52 88" stroke="#1B1F3B" stroke-width="3.5" stroke-linecap="round"/>
    <circle cx="75" cy="88" r="5" fill="#1B1F3B"/><circle cx="75" cy="88" r="14" fill="#F5B82E" fill-opacity="0.12"/><circle cx="75" cy="88" r="14" fill="none" stroke="#F5B82E" stroke-width="4"/><use href="#chain"/>
    <use href="#mustache"/>
    <path d="M52 118 L68 118" stroke="#1B1F3B" stroke-width="3" stroke-linecap="round"/>
    <use href="#bowtie"/><g transform="rotate(-6 60 40)"><use href="#hat"/></g></svg>